<svg width="399" height="256" viewBox="0 0 399 256" fill="none" xmlns="http://www.w3.org/2000/svg">
<path d="M231.546 73.4412C231.181 74.3051 230.824 75.1911 230.486 76.0741L229.599 75.7327C229.942 74.8397 230.302 73.9443 230.671 73.0705L231.546 73.4412Z" fill="#E6E6E6"/>
<path d="M387.392 136.499C386.934 137.693 386.445 138.886 385.94 140.047L385.069 139.666C385.827 137.928 386.541 136.126 387.183 134.331L388.077 134.653C387.856 135.268 387.628 135.884 387.392 136.499ZM389.846 129.126L388.932 128.866C389.451 127.03 389.913 125.156 390.305 123.296L391.234 123.492C390.838 125.373 390.371 127.268 389.846 129.126ZM383.445 145.284C382.556 146.996 381.598 148.696 380.598 150.337L379.788 149.841C380.776 148.219 381.723 146.538 382.602 144.844L383.445 145.284ZM392.233 117.776L391.293 117.644C391.556 115.758 391.757 113.838 391.89 111.938L392.837 112.004C392.703 113.926 392.5 115.868 392.233 117.776V117.776ZM377.41 155.183C376.298 156.754 375.116 158.306 373.897 159.798L373.162 159.195C374.367 157.72 375.536 156.185 376.636 154.632L377.41 155.183ZM393.042 106.204L392.092 106.203C392.094 104.299 392.029 102.371 391.9 100.474L392.848 100.41C392.978 102.328 393.043 104.277 393.042 106.204L393.042 106.204ZM370.068 164.165C368.746 165.571 367.36 166.947 365.948 168.255L365.303 167.556C366.699 166.263 368.07 164.902 369.377 163.512L370.068 164.165ZM392.256 94.6421L391.315 94.7715C391.055 92.8845 390.728 90.9829 390.34 89.1205L391.27 88.9261C391.662 90.8101 391.993 92.7331 392.256 94.6421V94.6421ZM361.559 172.05C360.058 173.261 358.498 174.433 356.921 175.534L356.378 174.754C357.937 173.665 359.48 172.506 360.964 171.309L361.559 172.05ZM389.897 83.2907L388.982 83.5479C388.468 81.7134 387.885 79.874 387.248 78.0801L388.142 77.7606C388.787 79.5753 389.377 81.4357 389.897 83.2908V83.2907ZM352.057 178.692C350.409 179.683 348.705 180.631 346.991 181.509L346.559 180.662C348.253 179.794 349.938 178.856 351.568 177.876L352.057 178.692ZM386.015 72.3623L385.144 72.7417C384.386 70.9942 383.558 69.2503 382.683 67.5585L383.527 67.1208C384.411 68.8317 385.249 70.5951 386.015 72.3623V72.3623ZM341.745 183.973C339.976 184.732 338.159 185.438 336.345 186.074L336.032 185.175C337.826 184.547 339.622 183.848 341.371 183.098L341.745 183.973ZM380.685 62.0601L379.874 62.5539C378.887 60.9274 377.829 59.3122 376.731 57.7534L377.507 57.205C378.618 58.7811 379.687 60.4148 380.685 62.0601ZM330.816 187.8C328.961 188.311 327.066 188.763 325.183 189.145L324.994 188.212C326.856 187.834 328.73 187.387 330.565 186.883L330.816 187.8ZM374.003 52.5778L373.267 53.1784C372.064 51.699 370.796 50.2435 369.496 48.8514L370.189 48.2016C371.504 49.6094 372.787 51.0815 374.003 52.5778H374.003ZM319.473 190.1C317.568 190.351 315.629 190.54 313.712 190.66L313.653 189.71C315.549 189.591 317.465 189.405 319.349 189.156L319.473 190.1ZM366.084 44.0975L365.437 44.7941C364.043 43.4942 362.586 42.2263 361.106 41.0257L361.704 40.2863C363.201 41.5004 364.675 42.7828 366.084 44.0975V44.0975ZM307.93 190.822C306.006 190.809 304.058 190.729 302.141 190.584L302.213 189.635C304.108 189.779 306.033 189.858 307.936 189.87L307.93 190.822ZM357.077 36.7923L356.532 37.5718C354.974 36.4777 353.359 35.4247 351.732 34.4416L352.222 33.627C353.868 34.6212 355.501 35.6862 357.077 36.7923L357.077 36.7923ZM296.384 189.945C294.481 189.668 292.563 189.32 290.684 188.911L290.885 187.981C292.744 188.385 294.64 188.729 296.521 189.004L296.384 189.945ZM347.162 30.8034L346.729 31.6498C345.039 30.7817 343.296 29.96 341.547 29.2067L341.922 28.3328C343.69 29.094 345.453 29.9253 347.162 30.8034ZM285.069 187.488C283.225 186.953 281.372 186.346 279.563 185.685L279.889 184.791C281.678 185.445 283.509 186.045 285.333 186.574L285.069 187.488ZM336.21 27.1206C334.414 26.4868 332.576 25.9074 330.746 25.3985L331 24.4818C332.851 24.9963 334.709 25.5822 336.525 26.2228L336.21 27.1206ZM325.179 24.0536C323.313 23.6711 321.413 23.3486 319.531 23.0959L319.658 22.153C321.561 22.4085 323.482 22.7344 325.369 23.1216L325.179 24.0536ZM313.832 22.5307C311.936 22.4089 310.012 22.3514 308.114 22.3605L308.109 21.409C310.03 21.3999 311.976 21.4579 313.893 21.5815L313.832 22.5307ZM302.396 22.586C300.499 22.7265 298.584 22.9349 296.705 23.2048L296.57 22.2629C298.471 21.9898 300.407 21.7793 302.326 21.6371L302.396 22.586ZM291.069 24.2134C289.208 24.6129 287.338 25.0817 285.514 25.6056L285.252 24.6915C287.097 24.1611 288.987 23.687 290.87 23.2826L291.069 24.2134ZM280.066 27.3754C278.278 28.0239 276.489 28.7428 274.749 29.5121L274.366 28.6417C276.126 27.8636 277.935 27.1366 279.742 26.4804L280.066 27.3754ZM269.59 32.0076C267.905 32.8954 266.229 33.8516 264.612 34.8498L264.114 34.0398C265.75 33.0302 267.444 32.0629 269.148 31.1654L269.59 32.0076ZM259.838 38.0252C258.288 39.1355 256.758 40.312 255.292 41.5222L254.688 40.7878C256.171 39.5637 257.718 38.374 259.286 37.2511L259.838 38.0252ZM250.995 45.3243C249.612 46.6357 248.257 48.0116 246.969 49.4139L246.271 48.7695C247.573 47.3514 248.943 45.9597 250.342 44.6329L250.995 45.3243ZM243.234 53.7728C242.046 55.2605 240.895 56.8087 239.813 58.3747L239.032 57.8331C240.127 56.2489 241.291 54.683 242.493 53.1785L243.234 53.7728ZM236.716 63.2024C235.744 64.8382 234.816 66.5301 233.957 68.2316L233.11 67.8017C233.979 66.081 234.917 64.3699 235.899 62.7158L236.716 63.2024Z" fill="#E6E6E6"/>
<path d="M274.448 182.588L274.062 183.457C273.186 183.066 272.312 182.659 271.465 182.246L271.88 181.39C272.718 181.798 273.582 182.201 274.448 182.588Z" fill="#E6E6E6"/>
<path d="M247 110.366H19.8262V255.552H247V110.366Z" fill="#3F3D56"/>
<path d="M216.529 255.418C216.42 255.24 213.85 250.941 212.959 242.015C212.142 233.826 212.668 220.023 219.813 200.768C233.349 164.291 216.693 134.86 216.523 134.567L217.345 134.089C217.388 134.163 221.686 141.667 224.225 153.616C227.579 169.457 226.358 185.929 220.703 201.1C207.19 237.514 217.236 254.752 217.339 254.922L216.529 255.418Z" fill="#E6E6E6"/>
<path d="M211.236 132.425C214.645 132.425 217.409 129.656 217.409 126.24C217.409 122.824 214.645 120.055 211.236 120.055C207.826 120.055 205.062 122.824 205.062 126.24C205.062 129.656 207.826 132.425 211.236 132.425Z" fill="#3CDBFF"/>
<path d="M230.705 155.261C234.114 155.261 236.878 152.492 236.878 149.076C236.878 145.66 234.114 142.891 230.705 142.891C227.296 142.891 224.532 145.66 224.532 149.076C224.532 152.492 227.296 155.261 230.705 155.261Z" fill="#E6E6E6"/>
<path d="M217.409 170.485C220.818 170.485 223.582 167.716 223.582 164.3C223.582 160.885 220.818 158.116 217.409 158.116C214 158.116 211.236 160.885 211.236 164.3C211.236 167.716 214 170.485 217.409 170.485Z" fill="#3CDBFF"/>
<path d="M233.554 183.331C236.963 183.331 239.727 180.562 239.727 177.146C239.727 173.73 236.963 170.961 233.554 170.961C230.145 170.961 227.381 173.73 227.381 177.146C227.381 180.562 230.145 183.331 233.554 183.331Z" fill="#3CDBFF"/>
<path d="M212.66 203.312C216.07 203.312 218.834 200.543 218.834 197.128C218.834 193.712 216.07 190.943 212.66 190.943C209.251 190.943 206.487 193.712 206.487 197.128C206.487 200.543 209.251 203.312 212.66 203.312Z" fill="#E6E6E6"/>
<path d="M220.258 255.646C220.258 255.646 214.085 240.422 232.604 229.003L220.258 255.646Z" fill="#E6E6E6"/>
<path d="M212.666 255.37C212.666 255.37 209.856 239.18 188.112 239.319L212.666 255.37Z" fill="#E6E6E6"/>
<path d="M150.939 142.765C155.806 144.907 160.245 147.915 164.04 151.645L167.851 147.826C163.386 143.428 158.124 139.924 152.347 137.502L150.939 142.765Z" fill="#3CDBFF"/>
<path d="M91.7071 169.606C93.5226 163.938 96.4708 158.699 100.372 154.209L96.5544 150.384C91.9934 155.553 88.5693 161.627 86.5049 168.209L91.7071 169.606Z" fill="#3CDBFF"/>
<path d="M172.506 153.111L168.658 156.966C171.629 160.996 173.888 165.507 175.335 170.302L180.531 168.907C178.835 163.198 176.116 157.845 172.506 153.111V153.111Z" fill="#E6E6E6"/>
<path d="M101.563 145.453L105.388 149.285C109.884 145.517 115.091 142.694 120.698 140.982L119.306 135.775C112.785 137.733 106.743 141.029 101.563 145.453V145.453Z" fill="#3CDBFF"/>
<path d="M89.6303 182.959C89.6303 180.784 89.7911 178.612 90.1114 176.461L84.8931 175.06C83.8106 181.78 84.1204 188.652 85.8035 195.247L90.9973 193.852C90.0874 190.293 89.6281 186.633 89.6303 182.959Z" fill="#3CDBFF"/>
<path d="M144.203 225.476C140.676 226.374 137.052 226.827 133.413 226.825C132.065 226.825 130.733 226.76 129.415 226.64L128.007 231.907C133.895 232.557 139.853 232.141 145.594 230.68L144.203 225.476Z" fill="#E6E6E6"/>
<path d="M93.2958 200.519L88.0425 201.929C90.5737 207.989 94.2877 213.481 98.9663 218.083L102.778 214.265C98.7705 210.331 95.552 205.665 93.2958 200.519V200.519Z" fill="#3CDBFF"/>
<path d="M182.044 175.785L176.817 177.188C177.442 181.927 177.293 186.736 176.374 191.427L181.578 192.824C182.713 187.213 182.871 181.449 182.044 175.785H182.044Z" fill="#E6E6E6"/>
<path d="M127.567 139.485C133.151 138.733 138.827 139.065 144.286 140.463L145.678 135.259C139.305 133.627 132.673 133.283 126.167 134.247L127.567 139.485Z" fill="#3CDBFF"/>
<path d="M122.467 225.437C117.345 224.109 112.506 221.857 108.188 218.793L104.33 222.659C109.353 226.364 115.037 229.073 121.076 230.64L122.467 225.437Z" fill="#E6E6E6"/>
<path d="M166.58 219.301L162.765 215.479C159.24 218.678 155.219 221.281 150.86 223.188L152.267 228.449C157.531 226.254 162.374 223.159 166.58 219.301V219.301Z" fill="#E6E6E6"/>
<path d="M174.469 198.199C172.836 202.593 170.511 206.698 167.581 210.355L171.413 214.195C174.985 209.84 177.783 204.903 179.686 199.599L174.469 198.199Z" fill="#E6E6E6"/>
<path d="M48.7392 118.608H24.7827V128.126H48.7392V118.608Z" fill="#E6E6E6"/>
<path d="M48.7392 133.092H24.7827V142.611H48.7392V133.092Z" fill="#3CDBFF"/>
<path d="M169.748 23.0651C169.748 23.0651 172.446 31.9471 170.904 34.6503C169.362 37.3535 173.602 43.146 180.54 40.4428C187.478 37.7396 187.863 34.6503 187.863 34.6503C187.863 34.6503 185.165 30.4024 184.394 21.5205L169.748 23.0651Z" fill="#FFB9B9"/>
<path d="M134.481 110.147C134.481 110.147 120.605 117.098 126.772 126.366C130.356 131.753 137.197 142.229 142.297 150.057C146.565 156.609 149.839 163.759 152.01 171.275L152.982 174.637L156.836 179.271L164.93 170.003C164.93 170.003 152.982 147.991 152.982 143.744C152.982 139.496 143.346 125.98 143.346 125.98L152.982 119.801C152.982 119.801 142.189 107.444 134.481 110.147Z" fill="#FFB9B9"/>
<path d="M179.576 134.089C179.576 134.089 179.962 144.902 180.347 149.15C180.665 152.654 177.573 162.467 178.645 173.384C179.299 180.446 179.221 187.558 178.412 194.604L176.878 208.62L188.442 209.779L192.296 178.113C192.296 178.113 194.608 155.715 193.452 148.378L193.838 132.931C193.838 132.931 185.358 129.841 179.576 134.089Z" fill="#FFB9B9"/>
<path d="M158.956 89.1004C158.956 89.1004 131.975 106.478 131.59 111.884C131.59 111.884 147.007 110.34 147.393 123.856C147.393 123.856 156.643 120.38 158.956 119.608C161.268 118.835 173.602 110.726 173.602 110.726C173.602 110.726 178.613 114.588 178.613 120.766C178.613 126.945 178.228 137.758 178.613 138.53C178.999 139.303 187.864 128.104 195.187 137.758L200.198 111.112C200.198 111.112 201.739 94.8929 198.656 93.7344L177.071 85.6248L158.956 89.1004Z" fill="#2F2E41"/>
<path d="M175.337 27.8923C181.723 27.8923 186.9 22.7055 186.9 16.3072C186.9 9.90887 181.723 4.72203 175.337 4.72203C168.95 4.72203 163.773 9.90887 163.773 16.3072C163.773 22.7055 168.95 27.8923 175.337 27.8923Z" fill="#FFB9B9"/>
<path d="M172.446 36.5811C172.446 36.5811 185.489 40.0324 187.254 33.4796C187.254 33.4796 203.281 36.5811 205.979 47.0077C208.677 57.4343 199.427 82.5355 199.427 83.3078C199.427 84.0801 207.135 88.7142 203.666 91.0312C200.197 93.3482 197.114 90.645 198.656 93.7344C200.197 96.8238 202.896 97.5961 200.583 98.3685C198.27 99.1408 184.395 87.1695 173.602 90.2589C162.81 93.3482 157.414 91.0312 157.414 91.0312L152.575 49.1271C152.386 47.5217 152.601 45.8945 153.201 44.3939C153.801 42.8933 154.767 41.5672 156.01 40.5365C158.425 38.5446 161.63 36.3925 164.737 35.8088C170.904 34.6503 171.16 34.0161 171.16 34.0161L172.446 36.5811Z" fill="#D0CDE1"/>
<path d="M160.112 104.161C160.112 104.161 163.581 123.856 168.206 121.153C172.831 118.449 167.05 104.161 167.05 104.161H160.112Z" fill="#FFB9B9"/>
<path d="M176.213 106.71C176.213 106.71 170.203 125.781 175.551 125.526C180.9 125.271 182.365 109.923 182.365 109.923L176.213 106.71Z" fill="#FFB9B9"/>
<path d="M154.909 173.865C154.909 173.865 152.211 170.776 150.669 175.023C149.127 179.271 144.887 184.678 144.887 184.678C144.887 184.678 135.637 195.104 142.189 195.49C148.742 195.877 157.992 186.222 157.992 186.222L168.784 176.182C168.784 176.182 165.207 167.454 163.527 167.377C161.847 167.3 162.232 177.727 154.909 173.865Z" fill="#2F2E41"/>
<path d="M179.962 205.917C179.962 205.917 177.246 206.712 177.448 203.418C177.448 203.418 167.628 208.62 170.326 212.482C173.024 216.344 176.108 220.205 176.108 220.205C176.108 220.205 190.369 228.315 191.525 226.384C192.681 224.453 192.681 220.592 191.911 219.047C191.14 217.502 187.285 214.799 188.442 212.482C189.598 210.165 188.056 203.986 186.129 203.986C184.202 203.986 179.962 205.917 179.962 205.917Z" fill="#2F2E41"/>
<path d="M165.246 6.49054C165.246 6.49054 168.965 -1.58423 176.095 0.27918C183.224 2.14259 187.254 4.9377 187.564 7.73281C187.874 10.5279 187.409 14.7206 187.409 14.7206C187.409 14.7206 186.634 8.97508 181.674 10.2174C176.715 11.4596 168.965 10.5279 168.965 10.5279L167.725 21.7084C167.725 21.7084 166.331 19.6897 164.781 20.932C163.231 22.1742 160.286 8.97508 165.246 6.49054Z" fill="#2F2E41"/>
<path d="M199.426 46.6216C199.426 46.6216 190.176 71.7227 190.947 74.8121C191.718 77.9014 190.947 78.2876 189.79 79.0599C188.634 79.8323 185.551 87.9419 185.551 87.9419C185.551 87.9419 183.624 92.5759 182.082 93.7344C180.54 94.893 180.54 97.9823 180.54 97.9823C180.54 97.9823 176.686 101.844 177.457 102.616C178.227 103.389 178.227 104.547 176.686 105.706C175.144 106.864 173.602 108.409 174.373 108.795C175.144 109.181 180.54 113.429 182.082 113.043C183.623 112.657 181.311 111.112 183.238 110.34C185.165 109.567 186.322 108.409 185.551 108.023C184.78 107.637 182.467 107.637 184.78 106.864C187.092 106.092 195.187 101.072 197.885 94.893C200.583 88.7142 213.51 51.3315 205.697 46.0803C205.697 46.0803 202.51 41.9875 199.426 46.6216Z" fill="#D0CDE1"/>
<path d="M156.643 42.3737L156.487 42.439C155.031 43.0473 153.745 44.002 152.74 45.2204C151.735 46.4388 151.042 47.8842 150.72 49.4314C149.879 53.4675 149.051 59.3053 149.705 64.7716C150.862 74.4259 151.632 78.6738 153.174 81.7631C154.716 84.8525 155.101 83.694 154.716 86.011C154.33 88.328 152.403 86.3972 154.33 89.4865C156.258 92.5759 157.414 91.8036 156.643 93.3483C155.872 94.8929 154.716 94.8929 156.258 96.8238C157.799 98.7546 157.799 99.527 158.185 100.299C158.57 101.072 159.727 106.864 159.727 106.864C159.727 106.864 165.894 104.933 169.362 105.706C169.362 105.706 166.279 100.299 167.05 99.1408C167.821 97.9823 168.977 97.5961 167.821 96.4376C166.664 95.2791 164.737 95.6653 166.664 94.5068C168.592 93.3482 165.123 81.377 165.123 81.377L156.643 42.3737Z" fill="#D0CDE1"/>
<path d="M399 255.172H0V256H399V255.172Z" fill="#3F3D56"/>
<path d="M261.354 131.039L260.753 130.471L306.074 82.284H342.964V83.1116H306.431L261.354 131.039Z" fill="#3F3D56"/>
<path d="M361.413 88.6123H317.875V90.091H361.413V88.6123Z" fill="#3CDBFF"/>
<path d="M361.413 94.8967H317.875V96.3754H361.413V94.8967Z" fill="#3CDBFF"/>
<path d="M361.413 101.181H317.875V102.66H361.413V101.181Z" fill="#3CDBFF"/>
<path d="M356.87 209.037H313.332V210.516H356.87V209.037Z" fill="#3CDBFF"/>
<path d="M356.87 215.321H313.332V216.8H356.87V215.321Z" fill="#3CDBFF"/>
<path d="M356.87 221.606H313.332V223.084H356.87V221.606Z" fill="#3CDBFF"/>
<path d="M338.283 201.618H294.696L294.573 201.438L260.704 152.193L261.383 151.723L295.13 200.79H338.283V201.618Z" fill="#3F3D56"/>
</svg>
