<svg width="127" height="105" viewBox="0 0 127 105" fill="none" xmlns="http://www.w3.org/2000/svg">
<g clip-path="url(#clip0)">
<path d="M60.4387 105C93.818 105 120.877 101.878 120.877 98.0261C120.877 94.1746 93.818 91.0522 60.4387 91.0522C27.0593 91.0522 0 94.1746 0 98.0261C0 101.878 27.0593 105 60.4387 105Z" fill="#8CE7FC"/>
<path d="M97.6754 0H23.7535C22.2412 0 21.0151 1.23643 21.0151 2.76165V93.6647C21.0151 95.1899 22.2412 96.4263 23.7535 96.4263H97.6754C99.1878 96.4263 100.414 95.1899 100.414 93.6647V2.76165C100.414 1.23643 99.1878 0 97.6754 0Z" fill="#3F3D56"/>
<path d="M96.3547 9.72717H24.5503V86.6992H96.3547V9.72717Z" fill="#302F45"/>
<path d="M60.715 94.5936C62.2587 94.5936 63.5101 93.3316 63.5101 91.7748C63.5101 90.218 62.2587 88.9559 60.715 88.9559C59.1713 88.9559 57.9199 90.218 57.9199 91.7748C57.9199 93.3316 59.1713 94.5936 60.715 94.5936Z" fill="white"/>
<path d="M60.7153 6.97946C60.4525 6.97946 60.1955 6.90085 59.9769 6.75357C59.7584 6.60628 59.588 6.39695 59.4874 6.15202C59.3868 5.9071 59.3605 5.6376 59.4118 5.37759C59.4631 5.11758 59.5896 4.87875 59.7755 4.69129C59.9614 4.50384 60.1982 4.37618 60.456 4.32446C60.7139 4.27274 60.9811 4.29929 61.224 4.40074C61.4668 4.50219 61.6744 4.67399 61.8204 4.89441C61.9665 5.11483 62.0444 5.37398 62.0444 5.63908C62.0441 5.99446 61.9039 6.33518 61.6547 6.58647C61.4056 6.83776 61.0677 6.97909 60.7153 6.97946V6.97946Z" fill="white"/>
<path d="M60.7154 4.36987C60.9647 4.36959 61.2085 4.44391 61.4159 4.58343C61.6233 4.72294 61.785 4.92137 61.8805 5.15361C61.9761 5.38584 62.0011 5.64144 61.9526 5.88805C61.904 6.13466 61.784 6.3612 61.6077 6.53898C61.4314 6.71677 61.2068 6.83781 60.9622 6.8868C60.7177 6.93578 60.4642 6.9105 60.234 6.81416C60.0037 6.71781 59.8069 6.55473 59.6686 6.34556C59.5302 6.1364 59.4565 5.89054 59.4568 5.63911C59.4572 5.3026 59.5899 4.97998 59.8258 4.74203C60.0618 4.50408 60.3817 4.37024 60.7154 4.36987V4.36987ZM60.7154 4.23039C60.4388 4.23122 60.1687 4.31473 59.9393 4.47036C59.7098 4.626 59.5312 4.84676 59.4261 5.10474C59.3211 5.36272 59.2942 5.64633 59.349 5.9197C59.4037 6.19308 59.5376 6.44394 59.7338 6.64056C59.9299 6.83718 60.1794 6.97073 60.4508 7.02433C60.7222 7.07793 61.0033 7.04916 61.2584 6.94167C61.5136 6.83418 61.7315 6.65279 61.8844 6.42044C62.0374 6.18809 62.1186 5.91521 62.1178 5.63632C62.1178 5.45121 62.0816 5.26791 62.0113 5.0969C61.941 4.9259 61.838 4.77054 61.7082 4.63971C61.5783 4.50888 61.4241 4.40515 61.2545 4.33443C61.0849 4.26372 60.9031 4.22742 60.7195 4.2276L60.7154 4.23039Z" fill="white"/>
<path d="M32.8846 31.3824H28.5972V32.0798H32.8846V31.3824Z" fill="#3F3D56"/>
<path d="M32.8846 36.4036H28.5972V37.101H32.8846V36.4036Z" fill="#3F3D56"/>
<path d="M32.8846 41.4248H28.5972V42.1222H32.8846V41.4248Z" fill="#3F3D56"/>
<path d="M32.8846 46.446H28.5972V47.1434H32.8846V46.446Z" fill="#3F3D56"/>
<path d="M32.8846 51.4672H28.5972V52.1645H32.8846V51.4672Z" fill="#3F3D56"/>
<path opacity="0.3" d="M54.6673 47.0429H51.4863V62.3533H54.6673V47.0429Z" fill="#00B0FF"/>
<path d="M32.8846 56.4883H28.5972V57.1857H32.8846V56.4883Z" fill="#3F3D56"/>
<path d="M32.8846 61.5095H28.5972V62.2069H32.8846V61.5095Z" fill="#3F3D56"/>
<path d="M34.2676 61.7885V31.8008" stroke="#3F3D56" stroke-miterlimit="10"/>
<path d="M34.1982 31.7311H92.2166" stroke="#3F3D56" stroke-miterlimit="10"/>
<path d="M34.3364 36.7523H92.2165" stroke="#3F3D56" stroke-miterlimit="10"/>
<path d="M34.3364 41.7735H92.2165" stroke="#3F3D56" stroke-miterlimit="10"/>
<path d="M34.3364 46.7947H92.2165" stroke="#3F3D56" stroke-miterlimit="10"/>
<path d="M34.3364 51.8159H92.2165" stroke="#3F3D56" stroke-miterlimit="10"/>
<path d="M34.3364 56.837H92.2165" stroke="#3F3D56" stroke-miterlimit="10"/>
<path d="M34.1982 61.8583H92.2166" stroke="#3F3D56" stroke-miterlimit="10"/>
<path d="M41.39 56.9068H38.209V61.7885H41.39V56.9068Z" fill="#00B0FF"/>
<path d="M48.6512 51.3834H45.4702V61.7884H48.6512V51.3834Z" fill="#00B0FF"/>
<path d="M63.1727 41.7219H59.9917V61.7885H63.1727V41.7219Z" fill="#00B0FF"/>
<path d="M70.4339 36.822H67.2529V61.7885H70.4339V36.822Z" fill="#00B0FF"/>
<path d="M77.6947 41.7219H74.5137V61.7885H77.6947V41.7219Z" fill="#00B0FF"/>
<path d="M84.9559 31.7743H81.7749V61.7884H84.9559V31.7743Z" fill="#00B0FF"/>
<path d="M59.2202 46.1238C57.7556 45.7403 56.2412 45.3525 54.7447 45.5841C54.5621 45.5962 54.388 45.6671 54.2482 45.7863C54.0615 45.9788 54.0836 46.3093 54.2344 46.5311C54.4016 46.7434 54.6295 46.8987 54.8872 46.976C55.587 47.2327 56.3477 47.255 57.0917 47.2675C57.8358 47.2801 58.5495 47.2968 59.2521 47.1211C59.4146 47.0927 59.5662 47.0198 59.6905 46.9105C60.0888 46.5032 59.5591 46.2131 59.2202 46.1238Z" fill="#A0616A"/>
<path d="M70.2621 49.7279C69.772 49.7478 69.2812 49.7165 68.7975 49.6344C68.3661 49.5448 67.941 49.4265 67.5251 49.2802L66.019 48.7878C65.203 48.5404 64.4038 48.2399 63.6263 47.8882C62.2972 47.2536 61.0857 46.3093 59.6446 46.0164C59.3846 45.9634 59.0554 45.962 58.9213 46.1921C58.8685 46.3027 58.8456 46.4254 58.8549 46.5478L58.8466 47.619C58.8399 47.69 58.8513 47.7615 58.8798 47.8268C58.9185 47.8856 58.9713 47.9336 59.0333 47.9663C60.4011 48.852 61.9487 49.4629 63.1907 50.5201C63.5669 50.8395 63.9113 51.198 64.3068 51.4965C64.8248 51.8832 65.4183 52.1546 66.048 52.2929C66.929 52.4868 67.8847 52.4212 68.6827 52.8424C69.0478 53.0335 69.3742 53.325 69.7795 53.4003C70.1266 53.4617 70.4779 53.3529 70.8126 53.2455C71.3658 53.0684 71.9342 52.8745 72.309 52.4365C72.7876 51.8786 72.8208 51.0724 72.8291 50.3346C72.8291 50.1254 72.9674 49.2648 72.8387 49.1044C72.6548 48.884 72.3685 49.2104 72.1873 49.3122C71.6161 49.6289 70.908 49.7279 70.2621 49.7279Z" fill="#E6E6F0"/>
<path d="M74.7973 44.252C74.7973 44.252 75.7198 48.2201 76.3961 48.8408C77.0724 49.4615 71.6011 50.827 71.6011 50.827C71.6011 50.827 72.767 46.4837 72.2138 45.7402C71.6605 44.9968 74.7973 44.252 74.7973 44.252Z" fill="#A0616A"/>
<path opacity="0.1" d="M74.7973 44.252C74.7973 44.252 75.7198 48.2201 76.3961 48.8408C77.0724 49.4615 71.6011 50.827 71.6011 50.827C71.6011 50.827 72.767 46.4837 72.2138 45.7402C71.6605 44.9968 74.7973 44.252 74.7973 44.252Z" fill="black"/>
<path d="M65.9335 96.0888C65.6334 96.1348 65.3263 96.0888 65.0262 96.1251C64.6022 96.1745 64.2097 96.3754 63.9198 96.6913C63.8703 96.7357 63.8305 96.79 63.8031 96.8507C63.7757 96.9115 63.7613 96.9774 63.7607 97.0442C63.7772 97.1371 63.8222 97.2225 63.8894 97.2883C64.166 97.5979 64.5684 97.7569 64.9709 97.8462C65.5705 97.9576 66.1802 98.0044 66.7896 97.9857C68.3054 97.994 69.8217 98.001 71.3384 98.0066C71.4481 97.4574 71.432 96.8902 71.2914 96.3482C71.2619 96.1986 71.1969 96.0583 71.1019 95.9396C71.0022 95.8424 70.8848 95.7657 70.7562 95.7136L69.8212 95.2631C69.0785 94.9046 68.4907 94.6382 67.7467 95.0804C67.1437 95.4263 66.6361 95.98 65.9335 96.0888Z" fill="#3C354C"/>
<path opacity="0.1" d="M65.9335 96.0888C65.6334 96.1348 65.3263 96.0888 65.0262 96.1251C64.6022 96.1745 64.2097 96.3754 63.9198 96.6913C63.8703 96.7357 63.8305 96.79 63.8031 96.8507C63.7757 96.9115 63.7613 96.9774 63.7607 97.0442C63.7772 97.1371 63.8222 97.2225 63.8894 97.2883C64.166 97.5979 64.5684 97.7569 64.9709 97.8462C65.5705 97.9576 66.1802 98.0044 66.7896 97.9857C68.3054 97.994 69.8217 98.001 71.3384 98.0066C71.4481 97.4574 71.432 96.8902 71.2914 96.3482C71.2619 96.1986 71.1969 96.0583 71.1019 95.9396C71.0022 95.8424 70.8848 95.7657 70.7562 95.7136L69.8212 95.2631C69.0785 94.9046 68.4907 94.6382 67.7467 95.0804C67.1437 95.4263 66.6361 95.98 65.9335 96.0888Z" fill="black"/>
<path d="M75.6173 99.9049C75.6372 100.073 75.6226 100.242 75.5744 100.404C75.4499 100.733 75.0779 100.884 74.7446 100.98C73.2232 101.411 71.6217 101.446 70.0423 101.478C68.857 101.502 67.6372 101.52 66.5294 101.096C66.3009 101.022 66.0922 100.896 65.9194 100.728C65.8331 100.644 65.77 100.538 65.7363 100.422C65.7026 100.306 65.6995 100.183 65.7272 100.065C65.8143 99.7696 66.1227 99.6106 66.4007 99.4836L67.9152 98.796L70.8334 97.471C71.1971 97.3064 71.5761 97.139 71.9744 97.1502C72.457 97.1655 72.8872 97.4417 73.3187 97.6607C73.6302 97.819 73.9539 97.9515 74.2868 98.0568C74.5814 98.1488 74.9949 98.16 75.2549 98.319C75.7265 98.6063 75.5924 99.4334 75.6173 99.9049Z" fill="#3C354C"/>
<path d="M66.5105 70.7415C65.7457 72.9202 64.9767 75.1142 64.6033 77.3946C64.465 78.2105 64.3876 79.0335 64.2396 79.8466C64.1013 80.6137 63.9021 81.3948 64.0404 82.1619C64.1303 82.6627 64.3585 83.1257 64.53 83.6027C64.7582 84.2374 64.8882 84.9041 65.104 85.5429C65.4387 86.5332 65.9739 87.4426 66.3141 88.4301C66.6447 89.3883 66.7913 90.4162 67.2518 91.3172C67.5284 91.8528 67.906 92.3368 68.0817 92.9101C68.2066 93.3353 68.2157 93.7867 68.1078 94.2167C68 94.6467 67.7793 95.0395 67.469 95.3537C67.5506 95.7261 67.9807 95.9116 68.3347 96.0511L69.6279 96.5323C70.1202 96.715 70.6748 96.8977 71.1492 96.6857C71.849 96.3775 71.979 95.4458 71.9583 94.6772C71.8892 92.8055 71.4438 90.9699 70.9999 89.1512C70.5849 87.4774 70.1825 85.8037 69.6929 84.1481C69.4896 83.4647 69.278 82.784 69.1134 82.088C68.5204 79.4924 68.719 76.7766 69.6832 74.2968C70.2364 72.902 69.7441 71.1837 69.8063 69.6759L67.9503 69.3314C67.5851 69.2645 67.1412 69.224 66.9102 69.5169C66.6793 69.8098 66.6419 70.3691 66.5105 70.7415Z" fill="#575A89"/>
<path opacity="0.1" d="M66.5105 70.7415C65.7457 72.9202 64.9767 75.1142 64.6033 77.3946C64.465 78.2105 64.3876 79.0335 64.2396 79.8466C64.1013 80.6137 63.9021 81.3948 64.0404 82.1619C64.1303 82.6627 64.3585 83.1257 64.53 83.6027C64.7582 84.2374 64.8882 84.9041 65.104 85.5429C65.4387 86.5332 65.9739 87.4426 66.3141 88.4301C66.6447 89.3883 66.7913 90.4162 67.2518 91.3172C67.5284 91.8528 67.906 92.3368 68.0817 92.9101C68.2066 93.3353 68.2157 93.7867 68.1078 94.2167C68 94.6467 67.7793 95.0395 67.469 95.3537C67.5506 95.7261 67.9807 95.9116 68.3347 96.0511L69.6279 96.5323C70.1202 96.715 70.6748 96.8977 71.1492 96.6857C71.849 96.3775 71.979 95.4458 71.9583 94.6772C71.8892 92.8055 71.4438 90.9699 70.9999 89.1512C70.5849 87.4774 70.1825 85.8037 69.6929 84.1481C69.4896 83.4647 69.278 82.784 69.1134 82.088C68.5204 79.4924 68.719 76.7766 69.6832 74.2968C70.2364 72.902 69.7441 71.1837 69.8063 69.6759L67.9503 69.3314C67.5851 69.2645 67.1412 69.224 66.9102 69.5169C66.6793 69.8098 66.6419 70.3691 66.5105 70.7415Z" fill="black"/>
<path d="M75.2993 69.7415C75.2509 70.4124 75.1969 71.1028 74.8954 71.6942C74.7115 72.0596 74.4445 72.3748 74.2357 72.7263C73.6825 73.6734 73.5815 74.8185 73.5594 75.9245C73.5373 77.0655 73.5774 78.2064 73.6189 79.3459C73.6196 79.6978 73.6553 80.0487 73.7254 80.3934C73.7945 80.6821 73.9107 80.9583 73.9771 81.247C74.1361 81.9444 73.9895 82.6822 74.085 83.3935C74.1583 83.9347 74.3616 84.4452 74.5234 84.9683C74.7617 85.7709 74.8742 86.6063 74.8567 87.444C74.8069 89.7119 75.5164 91.8724 75.533 94.1389C75.533 94.92 75.5053 95.7024 75.5703 96.4821C75.6395 97.3301 75.8234 98.1642 75.9147 99.0108C75.9355 99.2061 75.9382 99.4293 75.7889 99.559C75.6776 99.6337 75.5445 99.6681 75.4113 99.6566C74.9321 99.6867 74.4512 99.6397 73.9868 99.5171C73.5719 99.3902 73.204 99.167 72.8015 99.0206C72.0505 98.7416 71.1197 98.6831 70.6896 98.0052C70.6484 97.9478 70.6231 97.8804 70.6163 97.8099C70.6163 97.6174 70.8196 97.4989 70.9164 97.3315C70.9714 97.2223 70.9989 97.1011 70.9966 96.9786C71.034 96.086 70.6371 95.2435 70.3729 94.3913C70.1379 93.5597 69.9641 92.7117 69.8529 91.8542C69.5763 90.0843 69.2997 88.2767 69.5887 86.5081C69.6593 86.0729 69.7492 85.5805 69.485 85.2305C69.3636 85.0979 69.2303 84.9769 69.0867 84.8692C68.9278 84.7248 68.8005 84.5487 68.7126 84.3521C68.6248 84.1554 68.5784 83.9426 68.5763 83.7269C68.5763 82.3321 67.9457 80.9374 67.8848 79.5426C67.8489 78.7364 67.8973 77.9288 67.8599 77.1226C67.7603 74.9942 67.0716 72.9467 66.4437 70.9117C66.3378 70.6201 66.2767 70.3139 66.2625 70.0037C66.2548 69.8471 66.2818 69.6907 66.3417 69.5459C66.4015 69.4011 66.4926 69.2716 66.6083 69.1669C67.6621 68.3146 69.2236 68.0287 70.3909 68.7149C70.6232 68.8544 70.8376 69.0148 71.0824 69.1334C72.352 69.8043 74.0117 69.0985 75.2993 69.7415Z" fill="#575A89"/>
<path d="M73.1377 47.8477C74.8013 47.8477 76.15 46.4877 76.15 44.8099C76.15 43.1322 74.8013 41.7721 73.1377 41.7721C71.4741 41.7721 70.1255 43.1322 70.1255 44.8099C70.1255 46.4877 71.4741 47.8477 73.1377 47.8477Z" fill="#A0616A"/>
<path d="M66.4177 69.8894C66.5441 70.0179 66.6964 70.1173 66.8644 70.1809L67.7828 70.5993C67.9275 70.6795 68.0832 70.7378 68.2447 70.7723C68.45 70.7914 68.657 70.7763 68.8574 70.7276C70.9744 70.343 73.1459 70.3842 75.247 70.849C75.9233 69.8266 75.9828 68.5058 75.8002 67.2923C75.702 66.6479 75.543 65.9826 75.72 65.355C75.7947 65.0858 75.9302 64.8375 76.0063 64.5683C76.2138 63.8347 75.9634 63.0438 76.0782 62.2893C76.2165 61.3645 76.8845 60.6155 77.251 59.7591C77.4562 59.2286 77.606 58.678 77.6978 58.1161C77.8333 57.4308 77.9716 56.7469 78.1127 56.0644C78.2634 55.3098 78.4142 54.5469 78.3893 53.7783C78.3575 52.6053 77.9315 51.4853 77.5111 50.3904C77.334 49.9302 77.128 49.4336 76.702 49.1881C76.1806 48.8883 75.5236 49.0696 74.9677 49.2955C74.2471 49.587 73.5348 49.9427 72.7659 50.0906C72.4339 50.1547 71.9789 50.039 71.6788 50.1282C71.4215 50.2049 71.2459 50.555 71.0938 50.7684C70.2425 51.9511 69.6258 53.2886 69.2778 54.7073C68.9279 56.1411 68.8491 57.6656 68.2018 58.9892C68.0536 59.2819 67.8892 59.5659 67.7095 59.84C67.3361 60.423 66.9322 60.9879 66.6791 61.6309C66.2891 62.624 66.2919 63.7133 66.3168 64.7887C66.3168 64.9658 66.3264 65.1402 66.3292 65.3159C66.3569 66.5312 66.3301 67.7447 66.249 68.9563C66.2227 69.2799 66.2089 69.6411 66.4177 69.8894Z" fill="#E6E6F0"/>
<path d="M58.2799 62.3729C56.7669 62.4259 55.2054 62.4719 53.7947 61.9168C53.6189 61.8647 53.4643 61.7571 53.3535 61.61C53.2152 61.3812 53.3065 61.0632 53.5015 60.8805C53.7107 60.7105 53.9665 60.6092 54.2345 60.5904C54.9717 60.4927 55.7185 60.642 56.4474 60.7912C57.1763 60.9405 57.8761 61.0827 58.5219 61.4077C58.674 61.4719 58.8059 61.5765 58.9037 61.7104C59.2135 62.1972 58.6298 62.3603 58.2799 62.3729Z" fill="#A0616A"/>
<path opacity="0.1" d="M66.3125 64.7858C66.6472 64.7858 66.9805 64.7691 67.3124 64.7496C67.7045 64.7396 68.0938 64.6806 68.4714 64.5738C69.0385 64.3911 69.5239 64.0159 69.9858 63.6407C71.4375 62.4559 72.7845 61.1465 74.0119 59.727C74.4185 59.2569 74.8182 58.7632 75.0353 58.1788C75.3008 57.4661 75.2732 56.6794 75.2179 55.9193C75.1819 55.4213 75.1321 54.908 74.8998 54.4659C74.8063 54.2742 74.6703 54.1067 74.5025 53.9763C74.3346 53.846 74.1393 53.7563 73.9316 53.7141L74.453 53.7337C73.9524 53.4198 73.3162 53.4631 72.7284 53.5161C72.3245 53.5523 71.9083 53.5928 71.5514 53.795C71.1089 54.0377 70.8198 54.4924 70.5833 54.9332C69.7936 56.3851 69.2888 58.0114 68.2626 59.3044C68.1276 59.4837 67.9705 59.6449 67.7951 59.7842C67.7675 59.8051 67.7384 59.8246 67.7094 59.8441C67.336 60.4272 66.9321 60.992 66.679 61.635C66.2848 62.6211 66.2876 63.7105 66.3125 64.7858Z" fill="black"/>
<path d="M73.7106 53.1465C74.2043 53.1088 74.6635 53.4659 74.8944 53.908C75.1254 54.3502 75.171 54.8621 75.2125 55.3614C75.2679 56.1215 75.2955 56.9082 75.03 57.6209C74.8128 58.2053 74.4131 58.6991 74.0065 59.1691C72.7806 60.588 71.4354 61.8975 69.986 63.0828C69.5241 63.4608 69.0387 63.8332 68.4716 64.0159C68.094 64.1227 67.7047 64.1817 67.3126 64.1917C65.83 64.2796 64.31 64.2405 62.9146 63.7314C61.8081 63.3311 60.7888 62.6421 59.6229 62.5696C59.3366 62.5514 59.0338 62.5696 58.7793 62.4301C58.3118 62.1776 58.2261 61.5388 58.2676 61.006C58.2567 60.9494 58.2586 60.8911 58.2732 60.8353C58.2879 60.7796 58.3148 60.7279 58.3521 60.6842C58.3893 60.6404 58.4359 60.6058 58.4883 60.5828C58.5408 60.5598 58.5977 60.549 58.6548 60.5513C60.9866 60.2598 63.4207 60.8568 65.6682 60.1636C66.1784 59.9936 66.6777 59.7919 67.1632 59.5596C67.3842 59.4684 67.5947 59.3533 67.7912 59.2165C67.9665 59.0776 68.1231 58.9164 68.2572 58.7367C69.2835 57.4438 69.7896 55.8175 70.5794 54.3655C70.8214 53.9192 71.1104 53.4701 71.5475 53.2274C71.9043 53.0321 72.3206 52.9917 72.7244 52.9484C73.3122 52.8954 73.947 52.8522 74.4491 53.166" fill="#E6E6F0"/>
<path d="M75.3794 45.4431C75.2411 45.6147 75.154 45.8239 75.0019 45.9801C74.8497 46.1363 74.587 46.2312 74.4127 46.1056C74.143 45.9173 74.2841 45.4557 74.0752 45.2018C73.9577 45.0623 73.7571 45.0163 73.6133 44.8992C73.2731 44.6202 73.3644 44.04 73.0601 43.715C72.7558 43.39 72.2787 43.4625 71.8859 43.6062C71.4931 43.7499 71.0906 43.9591 70.6813 43.8754C70.1018 43.7554 69.8003 43.1166 69.6343 42.5434C69.4683 41.9701 69.3577 41.3411 69.6343 40.8222C69.8625 40.3912 70.3258 40.1248 70.7836 39.9854C71.2414 39.8459 71.7393 39.8208 72.2164 39.7343C72.8512 39.6185 73.4612 39.3982 74.1098 39.334C74.7585 39.2698 75.4569 39.3898 75.9078 39.8529C76.5744 40.5349 76.461 41.6479 76.7929 42.5448C76.9838 43.0539 77.3254 43.4932 77.5287 43.9967C77.8869 44.8894 77.7099 46.054 76.9201 46.5966C76.7979 46.6954 76.6437 46.745 76.4872 46.7361C76.1595 46.6887 76.0391 46.2702 76.0571 45.9369C76.1028 45.3301 75.9617 44.7039 75.3794 45.4431Z" fill="#3F3D56"/>
<path d="M55.9119 46.485H52.731V61.7955H55.9119V46.485Z" fill="#8CE7FC"/>
<path opacity="0.1" d="M9.82373 92.9199C9.92771 93.1542 10.0764 93.3655 10.2614 93.5418C10.4463 93.7181 10.6639 93.8559 10.9017 93.9474C11.1395 94.0389 11.3928 94.0823 11.6472 94.0751C11.9016 94.0679 12.1521 94.0102 12.3844 93.9053C12.6167 93.8004 12.8263 93.6505 13.0011 93.4639C13.1759 93.2774 13.3126 93.058 13.4033 92.8182C13.494 92.5784 13.5371 92.3229 13.5299 92.0663C13.5227 91.8098 13.4655 91.5571 13.3615 91.3229C13.2019 91.4288 13.0584 91.5575 12.9356 91.705C12.7516 91.9324 12.6299 92.189 12.4155 92.4024C12.0186 92.7958 11.3783 92.9603 10.8085 92.9729C10.4795 92.9743 10.1507 92.9566 9.82373 92.9199V92.9199Z" fill="black"/>
</g>
<defs>
<clipPath id="clip0">
<rect width="127" height="105" fill="white"/>
</clipPath>
</defs>
</svg>
