<svg width="432" height="241" viewBox="0 0 432 241" fill="none" xmlns="http://www.w3.org/2000/svg">
<g clip-path="url(#clip0)">
<path opacity="0.1" d="M432 157.505C432.024 170.026 428.611 182.313 422.137 193.023C422.137 206.121 416.042 217.993 406.156 226.646C403.681 228.809 401.017 230.743 398.195 232.427C398.082 232.499 397.965 232.567 397.848 232.635C397.637 232.76 397.425 232.885 397.21 233.013L397.01 233.131C396.107 233.641 395.186 234.133 394.246 234.595C385.581 238.863 376.048 241.065 366.392 241.027H82.0084C79.7427 241.027 77.4971 240.936 75.2716 240.754C67.3629 240.13 59.5915 238.327 52.214 235.404C50.774 234.834 49.3617 234.222 47.9771 233.566C47.3175 233.255 46.6642 232.936 46.0172 232.609C45.6132 232.404 45.2091 232.192 44.8088 231.98C42.3801 230.687 40.0274 229.254 37.7624 227.69C35.6924 226.271 33.7006 224.74 31.796 223.105C18.9455 212.057 10.9965 196.769 10.9965 179.899C3.79358 168.786 -0.0271117 155.815 0.000144822 142.565C0.000144822 105.056 29.9229 74.6495 66.8393 74.6495C67.9722 74.6495 69.1051 74.6835 70.2379 74.7441C70.4003 74.7441 70.5589 74.7441 70.7213 74.7668C76.9445 64.1393 85.2635 54.3744 95.2667 45.7787C122.546 22.3597 162.416 7.59698 206.828 7.59698C244.144 7.59698 278.255 18.0201 304.383 35.242C314.283 29.6346 325.466 26.6951 336.839 26.7105C373.748 26.7105 403.679 57.1174 403.679 94.6256C403.673 96.9989 403.547 99.3703 403.301 101.731C412.198 108.041 419.45 116.402 424.444 126.109C429.439 135.816 432.031 146.584 432 157.505V157.505Z" fill="#3CDBFF"/>
<path opacity="0.1" d="M343.897 103.653V99.5932C347.066 98.304 349.689 95.9511 351.317 92.9373C352.946 89.9236 353.478 86.4364 352.822 83.073C352.167 79.7096 350.364 76.6791 347.724 74.5004C345.084 72.3217 341.77 71.1303 338.349 71.1303C334.929 71.1303 331.615 72.3217 328.974 74.5004C326.334 76.6791 324.532 79.7096 323.877 83.073C323.221 86.4364 323.753 89.9236 325.381 92.9373C327.01 95.9511 329.633 98.304 332.802 99.5932V103.653C329.108 104.682 325.769 106.715 323.158 109.528C320.392 105.37 316.226 102.347 311.421 101.008V96.9448C314.59 95.6556 317.214 93.3027 318.842 90.289C320.47 87.2752 321.002 83.7881 320.347 80.4247C319.691 77.0612 317.889 74.0307 315.249 71.852C312.608 69.6733 309.294 68.482 305.874 68.482C302.453 68.482 299.139 69.6733 296.499 71.852C293.859 74.0307 292.057 77.0612 291.401 80.4247C290.746 83.7881 291.277 87.2752 292.906 90.289C294.534 93.3027 297.157 95.6556 300.327 96.9448V101.004C297.041 101.918 294.031 103.628 291.562 105.983C288.806 102.277 284.9 99.5944 280.456 98.356V94.2964C283.625 93.0073 286.249 90.6544 287.877 87.6406C289.505 84.6269 290.037 81.1397 289.382 77.7763C288.726 74.4129 286.924 71.3824 284.284 69.2037C281.643 67.025 278.329 65.8336 274.909 65.8336C271.488 65.8336 268.174 67.025 265.534 69.2037C262.894 71.3824 261.092 74.4129 260.436 77.7763C259.78 81.1397 260.312 84.6269 261.941 87.6406C263.569 90.6544 266.192 93.0073 269.362 94.2964V98.356C265.582 99.4115 262.177 101.518 259.543 104.432C258.369 101.416 256.51 98.7153 254.113 96.5442C251.716 94.3731 248.847 92.7914 245.734 91.9243V87.8647C248.903 86.5756 251.526 84.2227 253.155 81.2089C254.783 78.1952 255.315 74.708 254.659 71.3446C254.004 67.9812 252.202 64.9506 249.561 62.772C246.921 60.5933 243.607 59.4019 240.186 59.4019C236.766 59.4019 233.452 60.5933 230.812 62.772C228.171 64.9506 226.369 67.9812 225.714 71.3446C225.058 74.708 225.59 78.1952 227.218 81.2089C228.847 84.2227 231.47 86.5756 234.639 87.8647V91.9243C230.593 93.0531 226.983 95.3847 224.286 98.6113C221.589 101.838 219.933 105.808 219.534 109.997C217.628 108.672 215.513 107.678 213.277 107.058V102.998C216.446 101.709 219.07 99.3561 220.698 96.3424C222.326 93.3286 222.858 89.8415 222.203 86.478C221.547 83.1146 219.745 80.0841 217.105 77.9054C214.464 75.7267 211.15 74.5354 207.73 74.5354C204.309 74.5354 200.995 75.7267 198.355 77.9054C195.715 80.0841 193.912 83.1146 193.257 86.478C192.601 89.8415 193.133 93.3286 194.762 96.3424C196.39 99.3561 199.013 101.709 202.183 102.998V107.058C199.362 107.845 196.739 109.218 194.483 111.089C192.228 112.96 190.392 115.286 189.094 117.916C187.344 116.79 185.435 115.935 183.43 115.381V111.322C186.599 110.032 189.222 107.68 190.851 104.666C192.479 101.652 193.011 98.1649 192.355 94.8014C191.7 91.438 189.898 88.4075 187.257 86.2288C184.617 84.0501 181.303 82.8588 177.883 82.8588C174.462 82.8588 171.148 84.0501 168.508 86.2288C165.867 88.4075 164.065 91.438 163.41 94.8014C162.754 98.1649 163.286 101.652 164.914 104.666C166.543 107.68 169.166 110.032 172.335 111.322V115.381C170.443 115.904 168.636 116.697 166.969 117.734C165.663 115.148 163.832 112.863 161.595 111.024C159.358 109.186 156.763 107.835 153.975 107.058V102.998C157.144 101.709 159.768 99.3561 161.396 96.3424C163.024 93.3286 163.556 89.8415 162.901 86.478C162.245 83.1146 160.443 80.0841 157.803 77.9054C155.163 75.7267 151.848 74.5354 148.428 74.5354C145.007 74.5354 141.693 75.7267 139.053 77.9054C136.413 80.0841 134.611 83.1146 133.955 86.478C133.3 89.8415 133.832 93.3286 135.46 96.3424C137.088 99.3561 139.711 101.709 142.881 102.998V107.058C139.881 107.894 137.106 109.394 134.762 111.447C132.418 113.501 130.563 116.055 129.335 118.922C127.224 117.298 124.82 116.096 122.255 115.381V111.322C125.424 110.032 128.048 107.68 129.676 104.666C131.304 101.652 131.836 98.1649 131.181 94.8014C130.525 91.438 128.723 88.4075 126.083 86.2288C123.442 84.0501 120.128 82.8588 116.708 82.8588C113.287 82.8588 109.973 84.0501 107.333 86.2288C104.693 88.4075 102.89 91.438 102.235 94.8014C101.579 98.1649 102.111 101.652 103.74 104.666C105.368 107.68 107.991 110.032 111.16 111.322V115.381C106.784 116.596 102.926 119.215 100.177 122.837C97.4273 126.458 95.9386 130.883 95.9385 135.433V229.26H137.454V220.937H157.091V229.26H198.629V220.937H228.461V205.803H254.14V212.235H285.105V214.883H317.58V217.532H359.119V123.705C359.118 119.155 357.63 114.73 354.881 111.108C352.131 107.487 348.273 104.868 343.897 103.653V103.653Z" fill="#3CDBFF"/>
<path d="M185.329 63.9388H219.855C228.3 63.9383 236.662 65.6043 244.464 68.8416C252.266 72.0789 259.355 76.8242 265.326 82.8065C271.297 88.7888 276.034 95.8909 279.266 103.707C282.497 111.524 284.161 119.901 284.161 128.362V215.651H121.028V128.362C121.028 111.276 127.802 94.8895 139.861 82.8079C151.92 70.7262 168.276 63.9388 185.329 63.9388V63.9388Z" fill="#2F2E41"/>
<path opacity="0.2" d="M189.106 67.4497H216.079C224.524 67.4492 232.886 69.1152 240.688 72.3526C248.489 75.5899 255.578 80.3352 261.55 86.3175C267.521 92.2998 272.258 99.4019 275.49 107.218C278.721 115.035 280.385 123.412 280.385 131.873V212.137H124.804V131.873C124.804 114.787 131.579 98.4005 143.638 86.3188C155.697 74.2371 172.052 67.4497 189.106 67.4497V67.4497Z" fill="black"/>
<path d="M394.238 227.981V234.587C385.573 238.856 376.04 241.057 366.384 241.019H82.0082C79.7425 241.019 77.4969 240.928 75.2714 240.747C67.3627 240.122 59.5913 238.319 52.2138 235.397C50.7738 234.827 49.3615 234.214 47.9769 233.558C47.3173 233.248 46.664 232.929 46.017 232.601C45.613 232.397 45.2089 232.185 44.8086 231.973C42.3801 230.681 40.0274 229.251 37.7622 227.69V209.749C37.7622 206.85 38.912 204.069 40.9586 202.018C43.0053 199.968 45.7811 198.816 48.6755 198.816H362.567C365.207 198.82 367.756 199.784 369.741 201.528L390.511 219.764C391.68 220.789 392.618 222.052 393.261 223.469C393.904 224.886 394.237 226.425 394.238 227.981V227.981Z" fill="#2F2E41"/>
<path d="M182.267 85.432C174.032 85.9768 165.829 86.8596 157.657 88.0804C155.335 88.4285 152.979 88.8144 150.86 89.8434C149.214 90.7072 147.696 91.7972 146.351 93.082C140.285 98.5268 135.401 105.163 132.002 112.578C129.898 117.174 128.388 122.036 126.405 126.671C119.347 143.223 106.546 156.76 99.0956 173.138C97.4832 176.683 96.1237 180.383 95.5837 184.238C95.0248 188.226 95.6592 192.879 98.9295 195.21C100.44 196.281 102.275 196.723 104.073 197.102C126.7 202.122 149.591 205.867 172.638 208.319C170.141 205.906 169.307 202.164 169.635 198.706C169.964 195.248 171.32 191.979 172.656 188.775C159.613 185.892 146.603 182.865 133.625 179.694C131.688 179.222 129.362 178.332 129.124 176.35C129.003 175.34 129.502 174.367 129.993 173.478C135.528 163.437 142.164 154.047 149.78 145.482C149.78 156.098 149.255 168.087 149.255 178.707H271.643C270.171 172.648 269.306 166.457 269.06 160.225C268.489 139.886 275.324 119.702 273.55 99.404C273.383 97.5312 273.127 95.6017 272.149 93.9976C270.461 91.2281 267.092 90.0818 263.996 89.1359C252.123 85.5191 240.002 81.8605 227.593 82.1443C223.904 82.2313 220.229 82.6626 216.563 83.0977C205.389 84.4181 193.494 84.6867 182.267 85.432Z" fill="#3CDBFF"/>
<path d="M124.948 207.449L133.859 236.025C133.916 236.206 134.03 236.364 134.182 236.476C134.335 236.589 134.52 236.649 134.709 236.649H172.951L163.888 203.356L125.725 206.295C125.593 206.306 125.464 206.347 125.349 206.415C125.234 206.482 125.135 206.575 125.06 206.685C124.986 206.796 124.937 206.922 124.917 207.054C124.898 207.187 124.908 207.322 124.948 207.449V207.449Z" fill="#656478"/>
<path d="M190.321 97.7204C188.66 98.6776 186.723 99.0219 184.835 99.351L172.649 101.47C170.277 101.882 167.781 102.351 165.953 103.921C162.215 107.126 163.023 113.024 164.156 117.821L166.422 127.446C168.129 134.68 169.873 142.001 173.374 148.554C179.487 159.991 190.703 168.227 203.036 172.196C207.443 173.615 212.099 174.538 216.698 174.031C225.708 173.04 233.416 166.604 238.166 158.867C242.917 151.13 245.179 142.156 247.252 133.31C249.242 124.843 251.134 116.255 251.005 107.553C250.968 104.844 250.696 102.015 249.253 99.718C246.092 94.6748 238.929 94.2965 233.057 95.2272C232.143 95.3747 231.195 95.5336 230.315 95.2574C227.672 94.4326 227.612 90.7968 226.479 88.2733C224.338 83.5139 217.986 82.6702 212.794 83.1015C207.601 83.5328 199.516 84.0889 194.993 87.0362C190.642 89.8548 195.423 94.7732 190.321 97.7204Z" fill="#FBBEBE"/>
<path opacity="0.1" d="M190.321 97.7204C188.66 98.6776 186.723 99.0219 184.835 99.351L172.649 101.47C170.277 101.882 167.781 102.351 165.953 103.921C162.215 107.126 163.023 113.024 164.156 117.821L166.422 127.446C168.129 134.68 169.873 142.001 173.374 148.554C179.487 159.991 190.703 168.227 203.036 172.196C207.443 173.615 212.099 174.538 216.698 174.031C225.708 173.04 233.416 166.604 238.166 158.867C242.917 151.13 245.179 142.156 247.252 133.31C249.242 124.843 251.134 116.255 251.005 107.553C250.968 104.844 250.696 102.015 249.253 99.718C246.092 94.6748 238.929 94.2965 233.057 95.2272C232.143 95.3747 231.195 95.5336 230.315 95.2574C227.672 94.4326 227.612 90.7968 226.479 88.2733C224.338 83.5139 217.986 82.6702 212.794 83.1015C207.601 83.5328 199.516 84.0889 194.993 87.0362C190.642 89.8548 195.423 94.7732 190.321 97.7204Z" fill="black"/>
<path d="M180.235 108.564C182.078 112.438 183.46 116.546 185.688 120.212C187.459 123.126 189.729 125.695 191.987 128.248C197.836 134.877 203.761 141.558 211 146.605C213.998 131.175 221.24 116.892 231.909 105.367C235.028 102.011 238.933 98.7041 243.509 98.8289C246.349 98.9084 248.97 100.32 251.334 101.89C253.977 103.641 256.477 105.673 258.376 108.197C261.379 112.214 262.674 117.303 262.908 122.316C263.142 127.329 262.364 132.331 261.594 137.287L257.629 162.904C257.398 164.387 257.077 166.025 255.869 166.914C255.183 167.35 254.409 167.629 253.603 167.732C239.19 170.543 224.334 168.719 209.648 168.575C193.41 168.42 176.723 170.274 161.343 165.098C160.538 164.826 159.704 164.512 159.16 163.865C158.803 163.377 158.546 162.823 158.405 162.234C154.821 150.612 157.695 138.123 159.821 126.149C161.504 116.659 162.703 107.09 163.412 97.4783C163.476 96.6119 172.977 98.5263 174.038 99.1392C176.927 100.853 178.845 105.643 180.235 108.564Z" fill="#3CDBFF"/>
<g opacity="0.2">
<path opacity="0.2" d="M63.0137 203.087C63.0137 203.261 62.9949 203.431 62.976 203.598C61.536 203.028 60.1237 202.415 58.7391 201.759C57.9994 201.662 57.3115 201.326 56.7792 200.802C56.3751 200.598 55.9711 200.386 55.5708 200.174C55.6614 199.984 55.7636 199.799 55.8767 199.621C56.6546 198.388 57.8365 197.616 59.1393 197.658C60.4421 197.699 61.5712 198.543 62.2698 199.818C62.8041 200.822 63.0609 201.95 63.0137 203.087V203.087Z" fill="#3F3D56"/>
<path opacity="0.2" d="M63.2179 196.61C63.1921 197.745 62.8649 198.852 62.27 199.818C61.4921 201.048 60.3102 201.82 59.0074 201.778L58.7393 201.759C57.9996 201.662 57.3117 201.326 56.7794 200.802C56.4185 200.458 56.1139 200.06 55.8769 199.621C55.3558 198.614 55.1009 197.49 55.1366 196.356C55.1723 195.222 55.4974 194.117 56.0808 193.144C56.8587 191.911 58.0407 191.139 59.3435 191.181C60.6463 191.222 61.7753 192.066 62.474 193.341C63.0082 194.345 63.2651 195.473 63.2179 196.61V196.61Z" fill="#3F3D56"/>
<path opacity="0.2" d="M63.4219 190.143C63.5142 187.217 61.7809 184.787 59.5505 184.717C57.3201 184.646 55.4371 186.961 55.3448 189.887C55.2525 192.813 56.9859 195.242 59.2163 195.313C61.4467 195.383 63.3296 193.068 63.4219 190.143Z" fill="#3F3D56"/>
<path opacity="0.2" d="M63.6275 183.665C63.7198 180.739 61.9865 178.31 59.7561 178.24C57.5256 178.169 55.6427 180.484 55.5504 183.41C55.4581 186.336 57.1914 188.765 59.4219 188.835C61.6523 188.906 63.5352 186.591 63.6275 183.665Z" fill="#3F3D56"/>
<path opacity="0.2" d="M63.8296 177.188C63.9219 174.262 62.1886 171.833 59.9582 171.762C57.7277 171.692 55.8448 174.006 55.7526 176.932C55.6603 179.858 57.3935 182.287 59.624 182.358C61.8544 182.429 63.7373 180.114 63.8296 177.188Z" fill="#3F3D56"/>
<path opacity="0.2" d="M46.0704 132.247C45.5386 131.526 45.059 130.767 44.6354 129.977L55.307 128.566L43.8046 128.294C42.7795 125.858 42.2612 123.238 42.2813 120.594C42.3014 117.95 42.8596 115.338 43.9217 112.918L59.0719 121.408L45.1943 110.497C46.5943 108.228 48.4461 106.273 50.634 104.754C52.822 103.235 55.2992 102.184 57.9108 101.667C60.5224 101.149 63.2124 101.177 65.8127 101.749C68.413 102.32 70.8679 103.422 73.0239 104.987C75.1799 106.551 76.9908 108.545 78.3434 110.842C79.696 113.139 80.5614 115.691 80.8854 118.338C81.2094 120.985 80.9851 123.671 80.2265 126.228C79.4679 128.784 78.1914 131.157 76.4765 133.197C77.3029 134.32 78.0056 135.528 78.5723 136.802L64.5739 143.552L79.4258 139.076C80.3614 142.167 80.513 145.443 79.8668 148.607C79.2207 151.771 77.7971 154.724 75.7251 157.199C77.882 160.13 79.1718 163.611 79.4469 167.242C79.722 170.874 78.9712 174.51 77.2806 177.734C75.59 180.958 73.0277 183.64 69.8868 185.474C66.746 187.307 63.1535 188.218 59.5202 188.102C55.887 187.985 52.3597 186.847 49.342 184.817C46.3243 182.786 43.9379 179.946 42.4559 176.62C40.9739 173.295 40.4561 169.618 40.9617 166.012C41.4674 162.405 42.976 159.014 45.3151 156.226C42.739 152.723 41.4129 148.455 41.5499 144.106C41.6869 139.757 43.279 135.58 46.0704 132.247V132.247Z" fill="#3CDBFF"/>
<path opacity="0.1" d="M80.2448 145.326C80.1117 149.679 78.5149 153.858 75.7134 157.187C77.8733 160.118 79.1661 163.598 79.4438 167.23C79.7216 170.862 78.9732 174.499 77.2841 177.725C75.595 180.951 73.0336 183.635 69.893 185.471C66.7523 187.306 63.1594 188.219 59.5253 188.104C55.8912 187.989 52.3628 186.851 49.3439 184.821C46.325 182.791 43.9376 179.95 42.4548 176.624C40.9721 173.298 40.454 169.621 40.9598 166.014C41.4655 162.406 42.9748 159.014 45.3148 156.226C42.8111 152.844 80.3128 143.151 80.2448 145.326Z" fill="black"/>
</g>
<path opacity="0.1" d="M25.6855 61.5969C30.1966 61.5969 33.8535 57.9331 33.8535 53.4135C33.8535 48.8939 30.1966 45.2301 25.6855 45.2301C21.1745 45.2301 17.5176 48.8939 17.5176 53.4135C17.5176 57.9331 21.1745 61.5969 25.6855 61.5969Z" fill="#3CDBFF"/>
<path opacity="0.1" d="M59.7285 16.3668C64.2396 16.3668 67.8965 12.703 67.8965 8.18341C67.8965 3.66384 64.2396 0 59.7285 0C55.2175 0 51.5605 3.66384 51.5605 8.18341C51.5605 12.703 55.2175 16.3668 59.7285 16.3668Z" fill="#3CDBFF"/>
<path opacity="0.1" d="M56.9608 52.9708C64.5209 52.9708 70.6496 46.8305 70.6496 39.2561C70.6496 31.6817 64.5209 25.5415 56.9608 25.5415C49.4007 25.5415 43.272 31.6817 43.272 39.2561C43.272 46.8305 49.4007 52.9708 56.9608 52.9708Z" fill="#3CDBFF"/>
<path d="M205.049 101.962C222.568 101.962 236.769 87.733 236.769 70.1813C236.769 52.6296 222.568 38.4011 205.049 38.4011C187.53 38.4011 173.329 52.6296 173.329 70.1813C173.329 87.733 187.53 101.962 205.049 101.962Z" fill="#FBBEBE"/>
<path d="M192.164 7.8202C183.702 8.89468 174.567 10.3134 168.586 16.4046C165.24 19.8097 163.28 24.3497 161.668 28.8443C159.168 35.8436 157.306 43.2211 157.891 50.6478C158.413 57.2914 160.867 64.0863 158.881 70.4499C157.967 73.3783 156.173 75.9358 154.78 78.6636C152.197 83.7295 150.981 89.4084 150.535 95.0796C150.226 98.9802 150.286 102.994 151.566 106.691C152.929 110.625 155.588 113.974 157.272 117.78C159.764 123.402 160.014 129.728 160.206 135.876C160.399 142.024 160.561 148.13 160.705 154.255C160.795 158.107 160.803 162.23 158.677 165.443C166.528 162.291 174.488 159.075 181.206 153.93C187.924 148.784 193.362 141.365 194.23 132.936C194.932 126.103 192.629 119.369 190.643 112.793C185.734 96.5249 182.562 79.1819 186.134 62.5692C187.422 56.5877 190.552 49.9101 196.56 48.8091C200.227 48.1395 203.886 49.8155 207.19 51.5483C214.999 55.6419 223.05 60.9386 225.958 69.2733C228.601 76.8098 226.377 85.205 222.937 92.401C219.497 99.5969 214.814 106.214 212.141 113.735C208.036 125.275 209.191 138.785 216.011 148.951C222.831 159.117 235.432 165.371 247.55 163.729C246.603 159.628 243.631 156.313 242.037 152.416C239.141 145.338 241.093 137.196 244.208 130.212C247.324 123.228 251.576 116.717 253.524 109.301C254.899 104.08 255.065 98.6246 255.057 93.2258C255.057 84.7283 254.638 76.2271 253.823 67.7675C253.007 59.3079 251.761 50.7424 249.072 42.6044C246.912 36.0781 243.767 29.7675 239.061 24.7621C234.054 19.4313 227.536 15.8182 221.136 12.277C217.307 10.1659 213.394 8.02829 209.097 7.23757C205.698 6.61331 202.126 5.72422 198.66 5.66747C196.303 5.63342 193.826 6.14418 192.164 7.8202Z" fill="#434175"/>
<path d="M251.866 48.839L231.459 44.8721C230.865 44.7567 230.29 45.1453 230.175 45.7402L220.398 96.2297C220.283 96.8245 220.671 97.4003 221.264 97.5157L241.672 101.483C242.266 101.598 242.84 101.209 242.955 100.615L252.733 50.1251C252.848 49.5302 252.46 48.9544 251.866 48.839Z" fill="#656478"/>
<path d="M253.409 49.1389L233.002 45.172C232.408 45.0566 231.833 45.4452 231.718 46.0401L221.941 96.5296C221.826 97.1244 222.214 97.7002 222.807 97.8156L243.215 101.783C243.809 101.898 244.383 101.509 244.498 100.914L254.276 50.4249C254.391 49.8301 254.003 49.2543 253.409 49.1389Z" fill="#3F3D56"/>
<path d="M242.511 58.8517C242.91 56.7902 242.545 54.9852 241.696 54.82C240.846 54.6549 239.833 56.1921 239.434 58.2536C239.035 60.3151 239.4 62.1202 240.25 62.2853C241.1 62.4505 242.112 60.9132 242.511 58.8517Z" fill="#3CDBFF"/>
<path d="M247.343 76.0455C246.346 74.2787 245.281 72.4513 243.601 71.3201C242.635 70.7265 241.597 70.2599 240.512 69.9316C236.853 68.649 233.133 67.3551 229.262 67.1508C228.632 67.1206 227.91 67.1508 227.499 67.6351C226.653 68.6301 227.994 69.9846 229.153 70.5861L238.374 75.3721L229.874 74.4716C228.639 74.3392 226.88 74.6759 226.97 75.9169C227.031 76.7303 227.922 77.173 228.692 77.4302C234.149 79.3219 240.455 80.805 243.442 85.7536C239.462 85.3753 235.395 84.997 231.494 85.8747C230.425 86.1168 229.319 86.4914 228.62 87.3351C227.922 88.1788 227.842 89.6051 228.722 90.2747C229.266 90.6796 229.999 90.6909 230.678 90.6531C233.446 90.5207 236.286 89.9683 238.945 90.759C241.603 91.5497 243.963 94.3419 243.046 96.9599C245.402 97.1718 248.189 96.9599 250.368 95.9422C252.769 94.8072 252.713 92.6734 252.565 90.1007C252.252 85.0613 249.756 80.3586 247.343 76.0455Z" fill="#FBBEBE"/>
<path opacity="0.1" d="M244.96 158.519C242.847 143.631 239.947 128.865 236.275 114.284C234.386 106.717 232.242 99.0219 232.782 91.2357C240.583 92.2308 247.573 92.9685 254.763 89.7754C254.88 93.8652 257.841 97.3421 258.917 101.296C259.638 103.944 259.366 106.747 259.649 109.475C259.933 112.203 260.782 114.848 261.511 117.5C265.127 130.642 265.98 144.394 264.015 157.883C257.342 158.678 251.617 159.552 244.96 158.519Z" fill="black"/>
<path d="M243.827 158.519C241.714 143.631 238.815 128.865 235.142 114.284C233.254 106.717 231.109 99.0219 231.649 91.2357C239.45 92.2308 246.44 92.9685 253.63 89.7754C253.747 93.8652 256.708 97.3421 257.784 101.296C258.505 103.944 258.233 106.747 258.517 109.475C258.8 112.203 259.649 114.848 260.378 117.5C263.994 130.642 264.847 144.394 262.882 157.883C256.209 158.678 250.484 159.552 243.827 158.519Z" fill="#3CDBFF"/>
<path d="M134.671 232.211L138.368 140.325C138.427 138.864 139.052 137.484 140.109 136.477C141.166 135.47 142.574 134.915 144.033 134.93L289.991 136.33C290.765 136.338 291.528 136.506 292.234 136.823C292.939 137.141 293.571 137.601 294.091 138.175C294.61 138.749 295.006 139.425 295.252 140.159C295.499 140.894 295.591 141.672 295.524 142.443L287.812 230.471C287.691 231.855 287.063 233.145 286.048 234.093C285.034 235.04 283.705 235.577 282.318 235.601L140.377 238.06C139.613 238.073 138.854 237.93 138.148 237.639C137.441 237.348 136.801 236.915 136.266 236.368C135.732 235.82 135.315 235.169 135.041 234.454C134.767 233.74 134.641 232.976 134.671 232.211Z" fill="#3F3D56"/>
<path d="M216.189 184.25C219.734 184.25 222.608 180.862 222.608 176.683C222.608 172.504 219.734 169.116 216.189 169.116C212.643 169.116 209.769 172.504 209.769 176.683C209.769 180.862 212.643 184.25 216.189 184.25Z" fill="#3CDBFF"/>
<path d="M353.455 171.485L353.153 174.08L348.243 216.022C335.446 224.962 325.492 216.37 325.405 216.022L319.219 173.883L318.868 171.485H353.455Z" fill="#3F3D56"/>
<path opacity="0.1" d="M353.455 171.485L353.153 174.08C338.735 182.479 323.354 175.941 319.219 173.883L318.868 171.485H353.455Z" fill="black"/>
<path d="M318.147 169.207V172.99C318.147 172.99 337.217 184.098 354.399 172.99V169.207H318.147Z" fill="#3CDBFF"/>
<path d="M320.364 164.209C320.364 164.209 319.809 166.763 318.147 166.986V170.206H354.399V167.319C354.399 167.319 352.182 166.763 352.511 164.209H320.364Z" fill="#3CDBFF"/>
<path d="M336.163 169.207C345.194 169.207 352.514 167.093 352.514 164.485C352.514 161.878 345.194 159.764 336.163 159.764C327.133 159.764 319.812 161.878 319.812 164.485C319.812 167.093 327.133 169.207 336.163 169.207Z" fill="#3CDBFF"/>
<path opacity="0.1" d="M336.163 169.207C345.194 169.207 352.514 167.093 352.514 164.485C352.514 161.878 345.194 159.764 336.163 159.764C327.133 159.764 319.812 161.878 319.812 164.485C319.812 167.093 327.133 169.207 336.163 169.207Z" fill="black"/>
<path opacity="0.1" d="M350.516 164.209C350.516 166.101 344.316 167.652 336.661 167.652H336.254C331.114 167.614 326.673 166.895 324.408 165.821C323.384 165.337 322.803 164.788 322.803 164.209C322.803 163.248 324.389 162.378 326.957 161.754C330.147 161.055 333.407 160.723 336.673 160.766C344.316 160.766 350.516 162.306 350.516 164.209Z" fill="black"/>
<path opacity="0.1" d="M336.254 167.652C331.114 167.614 326.673 166.895 324.408 165.821L326.945 161.739L336.254 167.652Z" fill="black"/>
<path opacity="0.1" d="M321.772 164.474C321.576 164.432 321.315 164.5 321.277 164.697C321.272 164.797 321.299 164.897 321.353 164.981C321.786 165.667 322.415 166.206 323.158 166.528C323.285 166.6 323.425 166.645 323.57 166.661C323.645 166.67 323.721 166.656 323.789 166.621C323.856 166.586 323.911 166.531 323.947 166.464C323.968 166.407 323.976 166.346 323.972 166.285C323.967 166.225 323.95 166.166 323.921 166.112C323.805 165.908 323.645 165.732 323.453 165.598C322.947 165.2 322.429 164.584 321.772 164.474Z" fill="black"/>
<path d="M336.714 204.914C342.101 204.914 346.468 200.539 346.468 195.142C346.468 189.745 342.101 185.369 336.714 185.369C331.327 185.369 326.96 189.745 326.96 195.142C326.96 200.539 331.327 204.914 336.714 204.914Z" fill="#3CDBFF"/>
<path d="M71.1178 195.165H75.6908C78.1946 195.165 80.5959 196.161 82.3663 197.935C84.1368 199.709 85.1314 202.114 85.1314 204.623V218.678H61.6772V204.623C61.6772 202.114 62.6719 199.709 64.4423 197.935C66.2128 196.161 68.614 195.165 71.1178 195.165V195.165Z" fill="#3F3D56"/>
<path opacity="0.1" d="M71.1178 195.165H75.6908C78.1946 195.165 80.5959 196.161 82.3663 197.935C84.1368 199.709 85.1314 202.114 85.1314 204.623V218.678H61.6772V204.623C61.6772 202.114 62.6719 199.709 64.4423 197.935C66.2128 196.161 68.614 195.165 71.1178 195.165V195.165Z" fill="black"/>
<path d="M72.4656 200.336C73.5022 200.336 74.3424 199.495 74.3424 198.456C74.3424 197.418 73.5022 196.576 72.4656 196.576C71.4291 196.576 70.5889 197.418 70.5889 198.456C70.5889 199.495 71.4291 200.336 72.4656 200.336Z" fill="#3F3D56"/>
<path d="M72.4656 197.987C73.5022 197.987 74.3424 197.145 74.3424 196.107C74.3424 195.068 73.5022 194.226 72.4656 194.226C71.4291 194.226 70.5889 195.068 70.5889 196.107C70.5889 197.145 71.4291 197.987 72.4656 197.987Z" fill="#3F3D56"/>
<path d="M72.4656 195.634C73.5022 195.634 74.3424 194.792 74.3424 193.753C74.3424 192.715 73.5022 191.873 72.4656 191.873C71.4291 191.873 70.5889 192.715 70.5889 193.753C70.5889 194.792 71.4291 195.634 72.4656 195.634Z" fill="#3F3D56"/>
<path d="M72.4656 193.284C73.5022 193.284 74.3424 192.442 74.3424 191.404C74.3424 190.365 73.5022 189.524 72.4656 189.524C71.4291 189.524 70.5889 190.365 70.5889 191.404C70.5889 192.442 71.4291 193.284 72.4656 193.284Z" fill="#3F3D56"/>
<path d="M72.4656 190.935C73.5022 190.935 74.3424 190.093 74.3424 189.054C74.3424 188.016 73.5022 187.174 72.4656 187.174C71.4291 187.174 70.5889 188.016 70.5889 189.054C70.5889 190.093 71.4291 190.935 72.4656 190.935Z" fill="#3F3D56"/>
<path d="M72.4656 188.585C73.5022 188.585 74.3424 187.743 74.3424 186.705C74.3424 185.667 73.5022 184.825 72.4656 184.825C71.4291 184.825 70.5889 185.667 70.5889 186.705C70.5889 187.743 71.4291 188.585 72.4656 188.585Z" fill="#3F3D56"/>
<path d="M72.4656 186.236C73.5022 186.236 74.3424 185.394 74.3424 184.356C74.3424 183.317 73.5022 182.475 72.4656 182.475C71.4291 182.475 70.5889 183.317 70.5889 184.356C70.5889 185.394 71.4291 186.236 72.4656 186.236Z" fill="#3F3D56"/>
<path d="M75.2825 187.174C76.3191 187.174 77.1593 186.332 77.1593 185.294C77.1593 184.255 76.3191 183.413 75.2825 183.413C74.246 183.413 73.4058 184.255 73.4058 185.294C73.4058 186.332 74.246 187.174 75.2825 187.174Z" fill="#3F3D56"/>
<path d="M77.1595 186.236C78.196 186.236 79.0363 185.394 79.0363 184.356C79.0363 183.317 78.196 182.475 77.1595 182.475C76.123 182.475 75.2827 183.317 75.2827 184.356C75.2827 185.394 76.123 186.236 77.1595 186.236Z" fill="#3F3D56"/>
<path d="M79.0365 185.294C80.073 185.294 80.9132 184.452 80.9132 183.413C80.9132 182.375 80.073 181.533 79.0365 181.533C77.9999 181.533 77.1597 182.375 77.1597 183.413C77.1597 184.452 77.9999 185.294 79.0365 185.294Z" fill="#3F3D56"/>
<path d="M72.4656 183.886C73.5022 183.886 74.3424 183.045 74.3424 182.006C74.3424 180.968 73.5022 180.126 72.4656 180.126C71.4291 180.126 70.5889 180.968 70.5889 182.006C70.5889 183.045 71.4291 183.886 72.4656 183.886Z" fill="#3F3D56"/>
<path d="M72.4656 181.537C73.5022 181.537 74.3424 180.695 74.3424 179.657C74.3424 178.618 73.5022 177.776 72.4656 177.776C71.4291 177.776 70.5889 178.618 70.5889 179.657C70.5889 180.695 71.4291 181.537 72.4656 181.537Z" fill="#3F3D56"/>
<path d="M72.4656 179.184C73.5022 179.184 74.3424 178.342 74.3424 177.303C74.3424 176.265 73.5022 175.423 72.4656 175.423C71.4291 175.423 70.5889 176.265 70.5889 177.303C70.5889 178.342 71.4291 179.184 72.4656 179.184Z" fill="#3F3D56"/>
<path d="M72.4656 176.834C73.5022 176.834 74.3424 175.992 74.3424 174.954C74.3424 173.915 73.5022 173.074 72.4656 173.074C71.4291 173.074 70.5889 173.915 70.5889 174.954C70.5889 175.992 71.4291 176.834 72.4656 176.834Z" fill="#3F3D56"/>
<path d="M80.2447 168.893C79.7803 168.961 79.312 169.01 78.8438 169.04C79.2807 168.658 79.6861 168.24 80.0559 167.792C79.7946 167.002 79.4125 166.258 78.9231 165.586C78.4579 165.848 77.9435 166.01 77.4126 166.063C76.9481 166.131 76.4798 166.18 76.0116 166.214C76.6271 165.711 77.2011 164.954 77.8053 164.323C76.409 163.054 74.6088 162.323 72.725 162.259C70.8412 162.195 68.9959 162.803 67.5172 163.974C66.0385 165.145 65.0222 166.804 64.6492 168.655C64.2762 170.506 64.5706 172.429 65.48 174.083C66.3894 175.738 67.8549 177.015 69.6159 177.688C71.3768 178.362 73.3191 178.387 75.0973 177.761C76.8755 177.135 78.3743 175.897 79.3272 174.267C80.28 172.638 80.6253 170.723 80.3014 168.863L80.2447 168.893Z" fill="#3CDBFF"/>
<path d="M86.517 178.234C86.0382 178.529 85.498 178.709 84.9385 178.76C84.4741 178.828 84.0058 178.881 83.5376 178.911C84.0353 178.464 84.4997 177.981 84.9272 177.466C83.7957 177.17 82.5948 177.308 81.5593 177.853C80.5238 178.397 79.7282 179.309 79.3281 180.41C78.9279 181.511 78.9519 182.721 79.3954 183.805C79.8389 184.889 80.6701 185.769 81.7263 186.271C82.7825 186.774 83.988 186.864 85.1069 186.524C86.2258 186.183 87.1778 185.437 87.7767 184.431C88.3757 183.425 88.5785 182.231 88.3455 181.083C88.1125 179.935 87.4605 178.915 86.517 178.223V178.234Z" fill="#3CDBFF"/>
<path d="M69.6527 187.174C70.6892 187.174 71.5294 186.332 71.5294 185.294C71.5294 184.255 70.6892 183.413 69.6527 183.413C68.6161 183.413 67.7759 184.255 67.7759 185.294C67.7759 186.332 68.6161 187.174 69.6527 187.174Z" fill="#3F3D56"/>
<path d="M67.7757 186.236C68.8122 186.236 69.6525 185.394 69.6525 184.356C69.6525 183.317 68.8122 182.475 67.7757 182.475C66.7392 182.475 65.8989 183.317 65.8989 184.356C65.8989 185.394 66.7392 186.236 67.7757 186.236Z" fill="#3F3D56"/>
<path d="M65.8988 185.294C66.9353 185.294 67.7755 184.452 67.7755 183.413C67.7755 182.375 66.9353 181.533 65.8988 181.533C64.8622 181.533 64.022 182.375 64.022 183.413C64.022 184.452 64.8622 185.294 65.8988 185.294Z" fill="#3F3D56"/>
<path d="M58.4183 178.234C58.8969 178.529 59.4371 178.709 59.9967 178.76C60.4612 178.828 60.9295 178.881 61.3977 178.911C60.8991 178.465 60.4346 177.982 60.0081 177.466C61.1396 177.17 62.3405 177.308 63.376 177.853C64.4115 178.397 65.2071 179.309 65.6072 180.41C66.0074 181.511 65.9834 182.721 65.5399 183.805C65.0964 184.889 64.2652 185.769 63.209 186.271C62.1528 186.774 60.9473 186.864 59.8284 186.524C58.7095 186.183 57.7575 185.437 57.1586 184.431C56.5596 183.425 56.3568 182.231 56.5898 181.083C56.8228 179.935 57.4747 178.915 58.4183 178.223V178.234Z" fill="#3CDBFF"/>
<path d="M71.1178 196.576H75.6908C78.1946 196.576 80.5959 197.572 82.3663 199.346C84.1368 201.12 85.1314 203.526 85.1314 206.034V218.47C85.1314 218.896 84.9627 219.304 84.6624 219.604C84.3622 219.905 83.9549 220.074 83.5303 220.074H63.2784C62.8537 220.074 62.4465 219.905 62.1462 219.604C61.8459 219.304 61.6772 218.896 61.6772 218.47V206.034C61.6772 203.526 62.6719 201.12 64.4423 199.346C66.2128 197.572 68.614 196.576 71.1178 196.576V196.576Z" fill="#3F3D56"/>
<g opacity="0.1">
<path opacity="0.1" d="M80.3884 169.407C80.1984 169.611 79.9966 169.803 79.7842 169.983C79.9994 169.983 80.2109 169.949 80.4261 169.926C80.4337 169.752 80.4073 169.578 80.3884 169.407Z" fill="black"/>
<path opacity="0.1" d="M76.9668 167.16C77.4388 167.13 77.9033 167.081 78.3716 167.013C78.7917 166.959 79.2022 166.847 79.5913 166.68C79.4011 166.301 79.1814 165.938 78.9342 165.594C78.6993 165.737 78.4449 165.845 78.179 165.915C77.8087 166.362 77.4033 166.778 76.9668 167.16Z" fill="black"/>
<path opacity="0.1" d="M65.4307 171.197C65.4279 169.763 65.8113 168.354 66.5404 167.12C67.2695 165.885 68.3175 164.871 69.5738 164.183C70.8301 163.495 72.2483 163.159 73.6791 163.211C75.1098 163.263 76.5001 163.701 77.7035 164.478L77.8243 164.349C77.0389 163.649 76.1231 163.112 75.1294 162.768C74.1358 162.424 73.0841 162.28 72.0349 162.345C70.9856 162.411 69.9596 162.683 69.016 163.147C68.0724 163.612 67.2298 164.258 66.5368 165.05C65.8437 165.842 65.3139 166.764 64.978 167.762C64.642 168.76 64.5064 169.814 64.5791 170.865C64.6518 171.916 64.9313 172.942 65.4016 173.884C65.8718 174.826 66.5234 175.665 67.3189 176.354C66.0976 174.914 65.4282 173.086 65.4307 171.197V171.197Z" fill="black"/>
</g>
<g opacity="0.1">
<path opacity="0.1" d="M83.5381 179.85C84.0063 179.819 84.4746 179.77 84.9391 179.702C85.4988 179.649 86.0389 179.468 86.5175 179.172C87.0477 179.564 87.4898 180.062 87.8151 180.636C88.1404 181.209 88.3416 181.845 88.4056 182.502C88.424 182.337 88.4328 182.172 88.4321 182.006C88.4356 181.271 88.2666 180.546 87.9386 179.889C87.6106 179.231 87.1328 178.661 86.544 178.223C86.0651 178.517 85.525 178.697 84.9655 178.749L84.5879 178.798C84.2656 179.175 83.9146 179.527 83.5381 179.85V179.85Z" fill="black"/>
<path opacity="0.1" d="M83.7267 178.245C83.8833 178.247 84.0397 178.259 84.1949 178.279C84.4404 178.018 84.6821 177.738 84.9275 177.466C84.2333 177.28 83.5057 177.257 82.8011 177.398C82.0965 177.539 81.4337 177.841 80.8642 178.28C80.2946 178.719 79.8335 179.283 79.5166 179.929C79.1997 180.576 79.0355 181.286 79.0366 182.006C79.0366 182.165 79.0366 182.32 79.0593 182.475C79.1754 181.316 79.7173 180.241 80.5797 179.459C81.4422 178.678 82.5637 178.245 83.7267 178.245V178.245Z" fill="black"/>
</g>
<g opacity="0.1">
<path opacity="0.1" d="M61.3974 179.85C60.9292 179.819 60.4609 179.77 59.9965 179.702C59.4366 179.65 58.8963 179.469 58.418 179.172C57.8878 179.564 57.4457 180.062 57.1204 180.636C56.7951 181.209 56.5939 181.845 56.5299 182.502C56.5116 182.337 56.5028 182.172 56.5035 182.006C56.4999 181.271 56.669 180.546 56.997 179.889C57.325 179.231 57.8027 178.661 58.3916 178.223C58.8702 178.518 59.4104 178.698 59.97 178.749L60.3477 178.798C60.6679 179.177 61.019 179.529 61.3974 179.85Z" fill="black"/>
<path opacity="0.1" d="M61.2086 178.245C61.0508 178.247 60.8931 178.259 60.7366 178.279C60.4949 178.018 60.2533 177.738 60.0078 177.466C60.702 177.28 61.4296 177.257 62.1343 177.398C62.8389 177.539 63.5016 177.841 64.0712 178.28C64.6407 178.719 65.1018 179.283 65.4187 179.929C65.7356 180.576 65.8999 181.286 65.8987 182.006C65.8987 182.165 65.8987 182.32 65.8761 182.475C65.76 181.316 65.2181 180.241 64.3556 179.459C63.4931 178.678 62.3716 178.245 61.2086 178.245V178.245Z" fill="black"/>
</g>
</g>
<defs>
<clipPath id="clip0">
<rect width="432" height="241" fill="white"/>
</clipPath>
</defs>
</svg>
